Coordinates
version=1
nRows=11
nColumns=36
inDegrees=yes

Units are S.I. units (second, meters, Newtons, ...)
If the header above contains a line with 'inDegrees', this indicates whether rotational values are in degrees (yes) or radians (no).

endheader
time	pelvis_tilt	pelvis_list	pelvis_rotation	pelvis_tx	pelvis_ty	pelvis_tz	hip_flexion_r	hip_adduction_r	hip_rotation_r	knee_angle_r	knee_angle_r_beta	ankle_angle_r	subtalar_angle_r	mtp_angle_r	hip_flexion_l	hip_adduction_l	hip_rotation_l	knee_angle_l	knee_angle_l_beta	ankle_angle_l	subtalar_angle_l	mtp_angle_l	lumbar_extension	lumbar_bending	lumbar_rotation	arm_flex_r	arm_add_r	arm_rot_r	elbow_flex_r	pro_sup_r	arm_flex_l	arm_add_l	arm_rot_l	elbow_flex_l	pro_sup_l
      1.13333330	     -3.39717089	      3.44241294	    -12.37184061	     -0.05975222	      1.28132886	     -0.09294558	      1.02195088	     -1.22991333	      4.73084488	      8.06773967	      0.14080862	     14.03667316	     -5.49382461	     -7.49999980	      2.37186812	      4.03730499	      3.28721306	      7.39426292	      0.12905423	      9.21991745	      0.42576872	     -7.49999980	     -1.95758040	     -4.24436799	     -3.46248328	     -0.28561988	    -13.90139563	     18.43552018	     17.85775394	    103.32453800	      3.07100880	    -14.86163123	     20.37891768	     12.54174285	    103.67948085
      1.15000000	     -3.69099772	      3.53544866	    -12.28492769	     -0.06037448	      1.28505654	     -0.09262692	      1.72855921	     -1.23663255	      4.73381690	      8.88926706	      0.15514698	     14.46186843	     -5.65896096	     -7.49999981	      3.21118897	      4.05317649	      3.19497724	      8.54768829	      0.14918530	      9.78652379	      0.63922050	     -7.49999981	     -2.33386250	     -4.25499118	     -3.32489852	     -1.19471215	    -14.35688831	     18.72555989	     17.60962182	    103.32610286	      2.63349999	    -15.06817181	     20.73025753	     13.02540096	    103.70762625
      1.16666670	     -4.04019664	      3.66956981	    -12.25785226	     -0.05922582	      1.28120035	     -0.09286627	      2.60747300	     -1.26205540	      4.89513616	      9.91909966	      0.17312095	     14.76820279	     -6.13759368	     -7.49999982	      4.21120755	      4.10143089	      2.93680485	      9.81934747	      0.17137994	     10.39897510	      0.71545421	     -7.49999982	     -2.82444486	     -4.26253109	     -3.29542951	     -1.93055625	    -15.07594096	     20.85837057	     17.76215034	    101.57852544	      1.88121675	    -15.57152439	     23.01367926	     14.24579531	    101.75245466
      1.18333330	     -4.52909212	      3.76530686	    -12.05760418	     -0.05929421	      1.28142065	     -0.09241416	      3.62028887	     -1.22962797	      4.90139233	     10.95121376	      0.19113474	     15.32602176	     -6.41352244	     -7.49999983	      5.48425891	      4.04185287	      2.43634847	     11.30539150	      0.19731630	     11.25613574	      1.37704419	     -7.49999983	     -3.30570944	     -4.21410803	     -3.22692753	     -2.93309780	    -15.72746629	     21.98357178	     18.26184915	    101.35720356	      1.10963390	    -16.10416241	     24.10084572	     15.67634410	    101.59000081
      1.20000000	     -5.39514927	      3.80995802	    -11.89253017	     -0.06757303	      1.28056892	     -0.09103310	      5.28478282	     -1.01870183	      5.11522465	     12.33244423	      0.21524176	     15.77180186	     -6.83229130	     -7.49999983	      7.63531260	      3.83372848	      2.18010348	     13.53547174	      0.23623855	     12.16609192	      1.35692296	     -7.49999983	     -3.73119877	     -4.01971049	     -3.24109144	     -3.67670630	    -16.36178136	     22.61145231	     18.85800686	    101.42156441	      0.59014749	    -16.54463748	     24.85690630	     16.91702689	    101.76339847
      1.21666670	     -6.01359466	      3.82612995	    -11.85249554	     -0.05799657	      1.27683990	     -0.09242108	      6.73453700	     -0.80994026	      5.46359860	     14.01696790	      0.24464224	     16.34526266	     -7.34929902	     -7.49999984	      9.46334085	      3.64896050	      1.86550148	     15.74175827	      0.27474551	     13.15642987	      1.34287842	     -7.49999984	     -4.41408312	     -3.80750289	     -3.11466132	     -4.47516035	    -17.22957183	     24.95618557	     20.02180826	     99.00499037	     -0.23442586	    -17.25764293	     27.26186469	     19.06015655	     99.38068332
      1.23333330	     -6.95240076	      3.79523076	    -11.93414740	     -0.06512019	      1.26908923	     -0.09766807	      8.99941937	     -0.56506926	      5.32505323	     16.59044005	      0.28955780	     17.41162603	     -7.17101139	     -7.49999984	     12.16641694	      3.30330282	      1.29455213	     18.84273817	      0.32886782	     14.58558565	      1.43226014	     -7.49999984	     -5.23921766	     -3.37533030	     -3.05407556	     -5.24891375	    -18.70513201	     28.77912610	     22.11245397	     98.34645876	     -1.30722477	    -18.32090626	     30.55279356	     22.31829316	     98.93228875
      1.25000000	     -8.29895168	      3.70930804	    -12.05492241	     -0.07453185	      1.26799083	     -0.09526739	     12.19203700	     -0.15772294	      5.22570144	     20.07998668	      0.35046188	     18.57493972	     -7.30337949	     -7.49999984	     15.56224268	      2.77651556	      0.78200246	     22.32566142	      0.38965630	     15.91492232	      1.27683926	     -7.49999984	     -5.89924123	     -2.80070894	     -2.85691984	     -6.18384114	    -19.68629504	     29.65534902	     23.79071263	     98.41952766	     -2.15503815	    -18.90731752	     31.28648352	     24.61241906	     99.12242415
      1.26666670	     -9.80649434	      3.63524242	    -12.38895119	     -0.07202114	      1.26560178	     -0.09540593	     15.96761462	      0.30401767	      5.23255764	     24.39975929	      0.42585614	     20.00473426	     -6.88105252	     -7.49999984	     19.37255113	      2.20493920	      0.41361177	     26.20047934	      0.45728463	     17.44310891	      0.65683002	     -7.49999984	     -6.73878760	     -2.03371252	     -2.60176745	     -7.20084771	    -21.14362469	     31.03534142	     26.49661008	     98.39766884	     -3.09456021	    -19.65016340	     32.32760146	     27.69128895	     99.32829127
      1.28333330	    -11.06950863	      3.59038536	    -12.76537203	     -0.07155366	      1.26043276	     -0.09516800	     19.53529357	      0.64279797	      5.07747338	     28.94403606	      0.50516873	     21.62186494	     -5.97311468	     -7.49999985	     22.73662304	      1.71934353	      0.09678133	     29.98265634	      0.52329607	     18.63798152	     -0.10026989	     -7.49999985	     -7.91572765	     -1.40236619	     -2.44031915	     -8.28868772	    -22.61058071	     32.44146687	     29.49072006	     97.91589498	     -4.00573318	    -20.32397537	     33.09096723	     30.26025850	     99.42143539
      1.30000000	    -12.42735435	      3.67002133	    -13.31897424	     -0.06869392	      1.24724548	     -0.09537024	     23.45559886	      0.88173355	      4.86659170	     34.15064973	      0.59604128	     23.78945618	     -4.55883489	     -7.49999985	     26.23845301	      1.27362572	     -0.24951853	     34.08706154	      0.59493146	     20.45139142	     -0.83016661	     -7.49999985	     -8.82052374	     -0.82660214	     -2.02827290	     -9.28117795	    -23.91623933	     34.31159716	     31.46589292	     94.13839794	     -4.53892034	    -20.62033647	     34.12940291	     31.77023516	     96.36305093
